<svg xmlns="http://www.w3.org/2000/svg" width="25" height="25" viewBox="0 0 25 25"><path fill-rule="evenodd" d="M 12.5 0 A 12.5 12.5 0 0 0 0 12.5 A 12.5 12.5 0 0 0 12.5 25 A 12.5 12.5 0 0 0 25 12.5 A 12.5 12.5 0 0 0 12.5 0 z M 6.0253906 7 L 8.2539062 7 L 9.5644531 11.015625 L 17.599609 11.015625 L 18.033203 9.8164062 L 18.972656 10.158203 L 16.855469 16 L 10.712891 16.009766 L 10.144531 18.003906 L 17.482422 18.003906 L 17.482422 19.003906 L 9.4824219 19.003906 A 0.50005 0.50005 0 0 1 9.0019531 18.367188 L 9.8925781 15.246094 L 7.5292969 8 L 6.0253906 8 L 6.0253906 7 z M 9.890625 12.015625 L 10.210938 13 L 16.878906 13 L 17.236328 12.015625 L 9.890625 12.015625 z M 10.537109 14 L 10.537109 14.001953 L 10.867188 15.011719 L 16.154297 15.001953 L 16.517578 14 L 10.537109 14 z "/></svg>